<?xml version="1.0"?>
<svg xmlns="http://www.w3.org/2000/svg" xmlns:xlink="http://www.w3.org/1999/xlink" xmlns:svgjs="http://svgjs.com/svgjs" version="1.1" width="512" height="512" x="0" y="0" viewBox="0 0 512 512" style="enable-background:new 0 0 512 512" xml:space="preserve" class=""><g><g xmlns="http://www.w3.org/2000/svg" id="Outline"><path d="M88,376a88.887,88.887,0,0,0,14.676-1.217l2.648,15.779A104.2,104.2,0,0,1,19.207,366l10.587-12A87.894,87.894,0,0,0,88,376ZM69.373,201.536l-4.044-15.48A103.167,103.167,0,0,0,25.816,206.2c-2.134,1.745-4.225,3.6-6.216,5.509l11.076,11.547c1.688-1.62,3.462-3.193,5.272-4.673A87.3,87.3,0,0,1,69.373,201.536Zm25.552-2.791.6-15.988a104.4,104.4,0,0,0-14.214.437l1.58,15.922A89.579,89.579,0,0,1,94.925,198.745ZM296,160a16,16,0,1,0-16-16A16.019,16.019,0,0,0,296,160Zm64,0a16,16,0,1,0-16-16A16.019,16.019,0,0,0,360,160Zm-60.363,23.612a52.038,52.038,0,0,0,56.726,0l-8.726-13.41a36.03,36.03,0,0,1-39.274,0ZM43.056,312l4.91-9.822-.323-18.135L33.6,274.685a55.738,55.738,0,0,0-1.171,6.305l-15.877-1.98a72,72,0,1,1,0,17.98l15.877-1.98A55.541,55.541,0,0,0,37.388,312Zm73.828,23.957-3.876-11.635L100.686,312H60.944L56,321.889v12.038a55.875,55.875,0,0,0,60.884,2.03Zm18.61-77.577L112,276v24.686l10.454,10.455,18.376-4.6a55.829,55.829,0,0,0-5.336-48.166ZM88,251.719,103.728,262.2l21.417-16.063A55.765,55.765,0,0,0,88,232Zm-7.52,14.216L63.568,279.741,63.858,296H96V276.281Zm-27.933,2.148L72,252.2v-17.86a56.248,56.248,0,0,0-32.247,25.21ZM496,316a65.98,65.98,0,0,1-18.2,45.609L466.2,350.6a50.253,50.253,0,0,0-13.977-79.541l-24.21-12.105-17.428,40.666,32.388,12.956A8,8,0,0,1,444.8,326.4l-32,24a8,8,0,0,1-8.378.755l-6.7-3.35a2.4,2.4,0,0,0-3.215,1.071,2.392,2.392,0,0,0,.449,2.765l2.7,2.7a8,8,0,0,1,0,11.312,14.646,14.646,0,0,0,0,20.688l1.68,1.679a14.614,14.614,0,0,0,19.48,1.079L453,361.753l10,12.494L428.812,401.6a30.6,30.6,0,0,1-40.79-2.259l-1.68-1.681A30.684,30.684,0,0,1,381.58,360.5a18.4,18.4,0,0,1,23.3-27.007l2.278,1.14,16.657-12.493-43.76-16.358-36.749,73.5L331.816,408H400a8,8,0,0,1,8,8v58.522a21.477,21.477,0,0,1-42.313,5.209L361.9,464.592l-49.6,4.543q-2.593.237-5.161.236a55.889,55.889,0,0,1-51.307-33.688l-21.793-45.72-7.778-3.89-67.833,82.71-15.77,23.655a8,8,0,0,1-10.541,2.555l-62.5-34.721A19.354,19.354,0,0,1,79.017,424H107.47l69.614-116.023,36.435-64.772-80.965-43.984A65.86,65.86,0,0,1,96,140a66.542,66.542,0,0,1,14.163-40.941l12.58,9.886a50.254,50.254,0,0,0,17.036,76l33.715,17.27,19.317-38.152-44.22-20.826A8,8,0,0,1,147.2,129.6l32-24A8,8,0,0,1,184,104h16a8,8,0,0,1-5.657-13.656,14.646,14.646,0,0,0,0-20.688l-1.68-1.679a14.614,14.614,0,0,0-19.48-1.079L130.86,100.757l-10-12.494L163.188,54.4a30.6,30.6,0,0,1,40.79,2.259l1.68,1.681A30.676,30.676,0,0,1,212.544,91.1a16.067,16.067,0,0,1,4.122,4.487A16,16,0,0,1,203.056,120H186.667l-19.234,14.426,57.974,26.959A32.019,32.019,0,0,1,248,121.009V120h-8a8,8,0,0,1-8-8V88a71.958,71.958,0,0,1,54.006-69.73l3.988,15.494a55.765,55.765,0,0,0-24.239,13.3c17.608-1.931,26.6-6.185,26.711-6.24l7.112,14.332c-.682.342-16.2,7.922-46.142,8.765a55.866,55.866,0,0,0-4.683,14.922c29.94-4.189,49.9-11.182,61.719-16.564,14.045-6.4,19.864-11.929,19.922-11.984l11.263,11.363C340.63,62.683,316.483,86.119,248,95.089V104h6.311A181.927,181.927,0,0,0,352,75.66V42.048A20.818,20.818,0,0,0,334.111,32H304V16h30.111a36.7,36.7,0,0,1,30.574,16.211A56.064,56.064,0,0,1,416,88v33.013a32,32,0,0,1-2.307,62.475,84.042,84.042,0,0,1-25.053,42.483l70.736,30.773A65.89,65.89,0,0,1,496,316ZM415.953,165.868a16.2,16.2,0,0,0,3.367-2.561A15.978,15.978,0,0,0,416,138.165V164C416,164.626,415.966,165.245,415.953,165.868ZM376,455.015l5.209,20.836A5.477,5.477,0,0,0,392,474.522V424H376ZM368,80a36.35,36.35,0,0,0,24.888,34.529L400,116.9V88a40.071,40.071,0,0,0-32-39.2ZM264,164a68,68,0,0,0,136,0V133.766l-12.172-4.057a52.322,52.322,0,0,1-34.108-36.4A197.673,197.673,0,0,1,264,119.758Zm-24-12a16,16,0,0,0,8.047,13.864c-.013-.622-.047-1.239-.047-1.864V138.161a16.2,16.2,0,0,0-3.32,2.532A15.921,15.921,0,0,0,240,152Zm-18.968,77.069,23.659-41.4-37.345-16.89-19.781,39.068Zm-79.757,236.6L109.194,440H79.017a3.354,3.354,0,0,0-1.628,6.286l56.047,31.138Zm52.856-65-40.1-23.17-31.575,52.625,28.4,22.722ZM314.583,408l11.071-27.676L187.29,322.065l-25.025,41.709,42.068,24.308,13.376-17.024a8,8,0,0,1,9.869-2.213l16,8a8,8,0,0,1,3.577,3.577L260.944,408ZM268.2,424l2.306,5.307A39.936,39.936,0,0,0,310.839,453.2L360,448.7V424ZM413.364,252.509,373.147,237.19a83.9,83.9,0,0,1-117-37.134l-60.778,108.05L332.2,365.719l36.648-73.3a8,8,0,0,1,9.685-4.012l17.016,5.673Zm-134.546-6.452-9.454,12.908a102.786,102.786,0,0,0,60.9,19.973,104.256,104.256,0,0,0,13.594-.892l-2.084-15.863A86.93,86.93,0,0,1,278.818,246.057Z" fill="#0963a0" data-original="#000000" style="" class=""/></g></g></svg>
