<?xml version="1.0"?>
<svg xmlns="http://www.w3.org/2000/svg" xmlns:xlink="http://www.w3.org/1999/xlink" xmlns:svgjs="http://svgjs.com/svgjs" version="1.1" width="512" height="512" x="0" y="0" viewBox="0 0 512 512" style="enable-background:new 0 0 512 512" xml:space="preserve" class=""><g><g xmlns="http://www.w3.org/2000/svg"><path d="M441.09,400.03,320,369.75V339.86A113.013,113.013,0,0,0,352.97,304H364a28.031,28.031,0,0,0,28-28V248c0-.14-.01-.27-.02-.41A27.88,27.88,0,0,0,400,228V188a28.031,28.031,0,0,0-28-28h-4V120a112,112,0,0,0-224,0v40h-4a28.031,28.031,0,0,0-28,28v40a28.031,28.031,0,0,0,28,28h4.29A112.034,112.034,0,0,0,192,339.86v29.89l-40,10V336a8,8,0,0,0-8-8H16a8,8,0,0,0-8,8V496a8,8,0,0,0,8,8H496a8,8,0,0,0,8-8V464A64.064,64.064,0,0,0,441.09,400.03ZM368,176h4a12.01,12.01,0,0,1,12,12v40a12.01,12.01,0,0,1-12,12h-4Zm-.29,80H372a27.8,27.8,0,0,0,4-.29V276a12.01,12.01,0,0,1-12,12h-3.39A111,111,0,0,0,367.71,256ZM144,240h-4a12.01,12.01,0,0,1-12-12V188a12.01,12.01,0,0,1,12-12h4ZM65,344H96v12a4,4,0,0,1-4,4H69a4,4,0,0,1-4-4Zm71,144H24V344H49v12a20.02,20.02,0,0,0,20,20H92a20.02,20.02,0,0,0,20-20V344h24Zm24-368a96,96,0,0,1,192,0v24H335.6a20.248,20.248,0,0,0,.4-4,20.02,20.02,0,0,0-20-20h-6.33a56,56,0,0,0-108.24,3.44A7.985,7.985,0,0,0,200,128v16H160Zm156,16a4,4,0,0,1,0,8H216v-8Zm-96.68-16a40.034,40.034,0,0,1,73.35,0ZM160,248V160H352v88a95.372,95.372,0,0,1-8.74,40H288v-8a8,8,0,0,0-8-8H232a8,8,0,0,0-8,8v32a8,8,0,0,0,8,8h48a8,8,0,0,0,8-8v-8h45.93A95.971,95.971,0,0,1,160,248Zm112,40v16H240V288Zm32,61.18v23.77C287.68,390.9,271.54,400,256,400s-31.68-9.1-48-27.05V349.18a111.88,111.88,0,0,0,96,0ZM432,488H152V396.25l45.28-11.32C216.41,405.55,236.15,416,256,416s39.59-10.45,58.72-31.07L432,414.25Zm56,0H448V416.67A48.08,48.08,0,0,1,488,464Z" fill="#0963a0" data-original="#000000" style="" class=""/><circle cx="208" cy="200" r="16" fill="#0963a0" data-original="#000000" style="" class=""/><circle cx="304" cy="200" r="16" fill="#0963a0" data-original="#000000" style="" class=""/><path d="M48,384H40a8,8,0,0,0,0,16h8a8,8,0,0,0,0-16Z" fill="#0963a0" data-original="#000000" style="" class=""/><path d="M120,384H72a8,8,0,0,0,0,16h48a8,8,0,0,0,0-16Z" fill="#0963a0" data-original="#000000" style="" class=""/><path d="M48,408H40a8,8,0,0,0,0,16h8a8,8,0,0,0,0-16Z" fill="#0963a0" data-original="#000000" style="" class=""/><path d="M120,408H72a8,8,0,0,0,0,16h48a8,8,0,0,0,0-16Z" fill="#0963a0" data-original="#000000" style="" class=""/><path d="M48,432H40a8,8,0,0,0,0,16h8a8,8,0,0,0,0-16Z" fill="#0963a0" data-original="#000000" style="" class=""/><path d="M120,432H72a8,8,0,0,0,0,16h48a8,8,0,0,0,0-16Z" fill="#0963a0" data-original="#000000" style="" class=""/></g></g></svg>
